<svg xmlns="http://www.w3.org/2000/svg" version="1.1" xmlns:xlink="http://www.w3.org/1999/xlink" xmlns:svgjs="http://svgjs.dev/svgjs" width="140" height="140"><svg width="140" height="140" viewBox="0 0 140 140" fill="none" xmlns="http://www.w3.org/2000/svg">
<rect width="140" height="140" rx="40" fill="#8308D0"></rect>
<path d="M70 70V70.04M65.3071 87.5193C61.115 89.6378 56.3992 90.4976 51.7292 89.9951C47.0591 89.4925 42.6343 87.6491 38.9888 84.6872C35.3433 81.7253 32.633 77.7716 31.1851 73.3033C29.7371 68.835 29.6133 64.0431 30.8287 59.506L52.4807 65.3071C50.3622 61.115 49.5024 56.3992 50.0049 51.7292C50.5075 47.0591 52.3509 42.6343 55.3128 38.9888C58.2747 35.3433 62.2284 32.633 66.6967 31.1851C71.165 29.7371 75.9569 29.6133 80.494 30.8287L74.6929 52.4807C78.885 50.3622 83.6008 49.5024 88.2708 50.0049C92.9409 50.5075 97.3657 52.3509 101.011 55.3128C104.657 58.2747 107.367 62.2284 108.815 66.6967C110.263 71.165 110.387 75.9569 109.171 80.494L87.5193 74.6929C89.6378 78.885 90.4976 83.6008 89.9951 88.2708C89.4925 92.9409 87.6491 97.3657 84.6872 101.011C81.7253 104.657 77.7716 107.367 73.3033 108.815C68.835 110.263 64.0431 110.387 59.506 109.171L65.3071 87.5193Z" stroke="white" stroke-width="10" stroke-linecap="round" stroke-linejoin="round"></path>
</svg><style>@media (prefers-color-scheme: light) { :root { filter: none; } }
@media (prefers-color-scheme: dark) { :root { filter: none; } }
</style></svg>