<svg width="677" height="141" viewBox="0 0 677 141" fill="none" xmlns="http://www.w3.org/2000/svg">
<rect y="1" width="140" height="140" rx="40" fill="#8308D0"/>
<path d="M70 71V71.04M65.3071 88.5193C61.115 90.6378 56.3992 91.4976 51.7292 90.9951C47.0591 90.4925 42.6343 88.6491 38.9888 85.6872C35.3433 82.7253 32.633 78.7716 31.1851 74.3033C29.7371 69.835 29.6133 65.0431 30.8287 60.506L52.4807 66.3071C50.3622 62.115 49.5024 57.3992 50.0049 52.7292C50.5075 48.0591 52.3509 43.6343 55.3128 39.9888C58.2747 36.3433 62.2284 33.633 66.6967 32.1851C71.165 30.7371 75.9569 30.6133 80.494 31.8287L74.6929 53.4807C78.885 51.3622 83.6008 50.5024 88.2708 51.0049C92.9409 51.5075 97.3657 53.3509 101.011 56.3128C104.657 59.2747 107.367 63.2284 108.815 67.6967C110.263 72.165 110.387 76.9569 109.171 81.494L87.5193 75.6929C89.6378 79.885 90.4976 84.6008 89.9951 89.2708C89.4925 93.9409 87.6491 98.3657 84.6872 102.011C81.7253 105.657 77.7716 108.367 73.3033 109.815C68.835 111.263 64.0431 111.387 59.506 110.171L65.3071 88.5193Z" stroke="white" stroke-width="10" stroke-linecap="round" stroke-linejoin="round"/>
<path d="M209.984 71.816C206.765 71.816 203.773 71.2267 201.008 70.048C198.288 68.8693 195.931 67.2373 193.936 65.152C191.987 63.0213 190.559 60.5507 189.652 57.74L197.336 54.408C198.56 57.3093 200.328 59.5987 202.64 61.276C204.952 62.908 207.559 63.724 210.46 63.724C212.092 63.724 213.497 63.4747 214.676 62.976C215.9 62.432 216.829 61.7067 217.464 60.8C218.144 59.8933 218.484 58.8053 218.484 57.536C218.484 56.04 218.031 54.816 217.124 53.864C216.263 52.8667 214.948 52.096 213.18 51.552L203.456 48.424C199.512 47.2 196.543 45.364 194.548 42.916C192.553 40.468 191.556 37.5893 191.556 34.28C191.556 31.3787 192.259 28.8173 193.664 26.596C195.115 24.3747 197.109 22.652 199.648 21.428C202.232 20.1587 205.179 19.524 208.488 19.524C211.525 19.524 214.313 20.068 216.852 21.156C219.391 22.1987 221.567 23.672 223.38 25.576C225.239 27.4347 226.621 29.6333 227.528 32.172L219.912 35.572C218.915 33.0333 217.419 31.084 215.424 29.724C213.429 28.3187 211.117 27.616 208.488 27.616C206.947 27.616 205.587 27.888 204.408 28.432C203.229 28.9307 202.3 29.656 201.62 30.608C200.985 31.5147 200.668 32.6027 200.668 33.872C200.668 35.2773 201.121 36.524 202.028 37.612C202.935 38.6547 204.317 39.4707 206.176 40.06L215.492 42.984C219.527 44.2987 222.541 46.112 224.536 48.424C226.576 50.736 227.596 53.592 227.596 56.992C227.596 59.8933 226.848 62.4547 225.352 64.676C223.856 66.8973 221.793 68.6427 219.164 69.912C216.535 71.1813 213.475 71.816 209.984 71.816ZM253.263 71.816C249.637 71.816 246.327 70.9773 243.335 69.3C240.389 67.6227 238.031 65.3333 236.263 62.432C234.541 59.5307 233.679 56.2213 233.679 52.504C233.679 48.7867 234.541 45.4773 236.263 42.576C238.031 39.6747 240.389 37.3853 243.335 35.708C246.282 34.0307 249.591 33.192 253.263 33.192C256.89 33.192 260.177 34.0307 263.123 35.708C266.07 37.3853 268.405 39.6747 270.127 42.576C271.895 45.432 272.779 48.7413 272.779 52.504C272.779 56.2213 271.895 59.5307 270.127 62.432C268.359 65.3333 266.002 67.6227 263.055 69.3C260.109 70.9773 256.845 71.816 253.263 71.816ZM253.263 63.656C255.258 63.656 257.003 63.18 258.499 62.228C260.041 61.276 261.242 59.9613 262.103 58.284C263.01 56.5613 263.463 54.6347 263.463 52.504C263.463 50.328 263.01 48.424 262.103 46.792C261.242 45.1147 260.041 43.8 258.499 42.848C257.003 41.8507 255.258 41.352 253.263 41.352C251.223 41.352 249.433 41.8507 247.891 42.848C246.35 43.8 245.126 45.1147 244.219 46.792C243.358 48.424 242.927 50.328 242.927 52.504C242.927 54.6347 243.358 56.5613 244.219 58.284C245.126 59.9613 246.35 61.276 247.891 62.228C249.433 63.18 251.223 63.656 253.263 63.656ZM279.535 71V34.008H287.899V41.284L287.219 39.992C288.08 37.7707 289.485 36.0933 291.435 34.96C293.429 33.7813 295.741 33.192 298.371 33.192C301.091 33.192 303.493 33.7813 305.579 34.96C307.709 36.1387 309.364 37.7933 310.543 39.924C311.721 42.0093 312.311 44.4347 312.311 47.2V71H303.403V49.308C303.403 47.676 303.085 46.2707 302.451 45.092C301.816 43.9133 300.932 43.0067 299.799 42.372C298.711 41.692 297.419 41.352 295.923 41.352C294.472 41.352 293.18 41.692 292.047 42.372C290.913 43.0067 290.029 43.9133 289.395 45.092C288.76 46.2707 288.443 47.676 288.443 49.308V71H279.535ZM319.843 71V34.008H328.751V71H319.843ZM319.843 29.86V20.34H328.751V29.86H319.843ZM354.792 71.816C351.12 71.816 347.811 70.9773 344.864 69.3C341.963 67.5773 339.673 65.2653 337.996 62.364C336.319 59.4173 335.48 56.108 335.48 52.436C335.48 48.764 336.319 45.4773 337.996 42.576C339.673 39.6747 341.963 37.3853 344.864 35.708C347.811 34.0307 351.12 33.192 354.792 33.192C357.421 33.192 359.869 33.668 362.136 34.62C364.403 35.5267 366.352 36.796 367.984 38.428C369.661 40.0147 370.863 41.9187 371.588 44.14L363.768 47.54C363.088 45.6813 361.932 44.1853 360.3 43.052C358.713 41.9187 356.877 41.352 354.792 41.352C352.843 41.352 351.097 41.828 349.556 42.78C348.06 43.732 346.881 45.0467 346.02 46.724C345.159 48.4013 344.728 50.328 344.728 52.504C344.728 54.68 345.159 56.6067 346.02 58.284C346.881 59.9613 348.06 61.276 349.556 62.228C351.097 63.18 352.843 63.656 354.792 63.656C356.923 63.656 358.781 63.0893 360.368 61.956C361.955 60.8227 363.088 59.304 363.768 57.4L371.588 60.936C370.863 63.0213 369.684 64.9027 368.052 66.58C366.42 68.212 364.471 69.504 362.204 70.456C359.937 71.3627 357.467 71.816 354.792 71.816Z" fill="white"/>
<path d="M203.188 126.456C201.187 126.456 199.337 126.101 197.64 125.392C195.968 124.657 194.499 123.631 193.232 122.314C191.991 120.997 191.028 119.451 190.344 117.678C189.66 115.905 189.318 113.967 189.318 111.864C189.318 109.736 189.66 107.785 190.344 106.012C191.028 104.239 191.991 102.693 193.232 101.376C194.473 100.059 195.943 99.0453 197.64 98.336C199.337 97.6013 201.187 97.234 203.188 97.234C205.139 97.234 206.887 97.576 208.432 98.26C210.003 98.944 211.32 99.8307 212.384 100.92C213.473 102.009 214.246 103.175 214.702 104.416L211.282 105.974C210.623 104.403 209.597 103.137 208.204 102.174C206.811 101.186 205.139 100.692 203.188 100.692C201.212 100.692 199.451 101.161 197.906 102.098C196.386 103.035 195.195 104.34 194.334 106.012C193.473 107.684 193.042 109.635 193.042 111.864C193.042 114.068 193.473 116.006 194.334 117.678C195.195 119.35 196.386 120.655 197.906 121.592C199.451 122.529 201.212 122.998 203.188 122.998C205.139 122.998 206.811 122.517 208.204 121.554C209.597 120.566 210.623 119.287 211.282 117.716L214.702 119.274C214.246 120.515 213.473 121.681 212.384 122.77C211.32 123.859 210.003 124.746 208.432 125.43C206.887 126.114 205.139 126.456 203.188 126.456ZM228.706 126.456C226.73 126.456 224.944 126 223.348 125.088C221.752 124.151 220.486 122.871 219.548 121.25C218.611 119.629 218.142 117.792 218.142 115.74C218.142 113.688 218.598 111.864 219.51 110.268C220.448 108.672 221.714 107.405 223.31 106.468C224.906 105.531 226.705 105.062 228.706 105.062C230.682 105.062 232.468 105.531 234.064 106.468C235.66 107.38 236.914 108.634 237.826 110.23C238.764 111.826 239.232 113.663 239.232 115.74C239.232 117.817 238.751 119.667 237.788 121.288C236.826 122.884 235.546 124.151 233.95 125.088C232.38 126 230.632 126.456 228.706 126.456ZM228.706 123.036C229.973 123.036 231.113 122.719 232.126 122.086C233.165 121.453 233.976 120.579 234.558 119.464C235.166 118.349 235.47 117.108 235.47 115.74C235.47 114.347 235.166 113.118 234.558 112.054C233.976 110.965 233.165 110.103 232.126 109.47C231.113 108.811 229.973 108.482 228.706 108.482C227.414 108.482 226.249 108.811 225.21 109.47C224.197 110.103 223.386 110.965 222.778 112.054C222.17 113.118 221.866 114.347 221.866 115.74C221.866 117.108 222.17 118.349 222.778 119.464C223.386 120.579 224.197 121.453 225.21 122.086C226.249 122.719 227.414 123.036 228.706 123.036ZM243.841 126V97.234H247.375V126H243.841ZM262.169 126.456C260.244 126.456 258.508 125.987 256.963 125.05C255.443 124.113 254.24 122.833 253.353 121.212C252.466 119.591 252.023 117.779 252.023 115.778C252.023 113.726 252.466 111.902 253.353 110.306C254.24 108.685 255.443 107.405 256.963 106.468C258.508 105.531 260.244 105.062 262.169 105.062C263.866 105.062 265.374 105.429 266.691 106.164C268.008 106.873 269.047 107.836 269.807 109.052L269.237 109.926V97.234H272.809V126H269.351V121.63L269.807 122.238C269.098 123.581 268.059 124.619 266.691 125.354C265.348 126.089 263.841 126.456 262.169 126.456ZM262.473 123.036C263.765 123.036 264.918 122.719 265.931 122.086C266.944 121.453 267.742 120.591 268.325 119.502C268.933 118.387 269.237 117.146 269.237 115.778C269.237 114.385 268.933 113.143 268.325 112.054C267.742 110.939 266.944 110.065 265.931 109.432C264.918 108.799 263.765 108.482 262.473 108.482C261.206 108.482 260.054 108.811 259.015 109.47C258.002 110.103 257.204 110.965 256.621 112.054C256.038 113.118 255.747 114.359 255.747 115.778C255.747 117.146 256.038 118.387 256.621 119.502C257.204 120.591 258.002 121.453 259.015 122.086C260.028 122.719 261.181 123.036 262.473 123.036ZM278.545 117.374V114.144H292.795V117.374H278.545ZM298.922 126V97.69H317.352V101.11H302.646V110.078H316.592V113.498H302.646V122.58H317.352V126H298.922ZM321.549 126V105.518H325.007V109.698L324.513 109.052C325.019 107.76 325.83 106.772 326.945 106.088C328.059 105.404 329.313 105.062 330.707 105.062C332.303 105.062 333.734 105.505 335.001 106.392C336.293 107.279 337.179 108.444 337.661 109.888L336.673 109.926C337.205 108.33 338.104 107.127 339.371 106.316C340.637 105.48 342.043 105.062 343.589 105.062C345.007 105.062 346.287 105.391 347.427 106.05C348.592 106.709 349.517 107.621 350.201 108.786C350.885 109.951 351.227 111.269 351.227 112.738V126H347.655V113.878C347.655 112.738 347.452 111.775 347.047 110.99C346.641 110.205 346.084 109.597 345.375 109.166C344.691 108.71 343.88 108.482 342.943 108.482C342.031 108.482 341.207 108.71 340.473 109.166C339.763 109.597 339.193 110.217 338.763 111.028C338.357 111.813 338.155 112.763 338.155 113.878V126H334.583V113.878C334.583 112.738 334.38 111.775 333.975 110.99C333.569 110.205 333.012 109.597 332.303 109.166C331.619 108.71 330.808 108.482 329.871 108.482C328.959 108.482 328.135 108.71 327.401 109.166C326.691 109.597 326.121 110.217 325.691 111.028C325.285 111.813 325.083 112.763 325.083 113.878V126H321.549ZM362.25 126.456C360.907 126.456 359.716 126.215 358.678 125.734C357.664 125.227 356.866 124.543 356.284 123.682C355.701 122.795 355.41 121.782 355.41 120.642C355.41 119.553 355.638 118.577 356.094 117.716C356.575 116.829 357.31 116.082 358.298 115.474C359.311 114.866 360.578 114.435 362.098 114.182L369.698 112.928V115.892L362.896 117.032C361.578 117.26 360.616 117.678 360.008 118.286C359.425 118.894 359.134 119.641 359.134 120.528C359.134 121.364 359.463 122.061 360.122 122.618C360.806 123.175 361.654 123.454 362.668 123.454C363.96 123.454 365.074 123.188 366.012 122.656C366.974 122.099 367.722 121.351 368.254 120.414C368.811 119.477 369.09 118.438 369.09 117.298V112.092C369.09 110.977 368.672 110.078 367.836 109.394C367.025 108.685 365.948 108.33 364.606 108.33C363.44 108.33 362.402 108.634 361.49 109.242C360.603 109.825 359.944 110.61 359.514 111.598L356.436 110.002C356.816 109.065 357.424 108.229 358.26 107.494C359.096 106.734 360.071 106.139 361.186 105.708C362.3 105.277 363.466 105.062 364.682 105.062C366.252 105.062 367.633 105.366 368.824 105.974C370.014 106.557 370.939 107.38 371.598 108.444C372.282 109.483 372.624 110.699 372.624 112.092V126H369.166V122.124L369.812 122.352C369.381 123.163 368.798 123.872 368.064 124.48C367.329 125.088 366.468 125.569 365.48 125.924C364.492 126.279 363.415 126.456 362.25 126.456ZM378.103 126V105.518H381.637V126H378.103ZM378.103 102.25V97.69H381.637V102.25H378.103ZM387.121 126V97.234H390.655V126H387.121ZM396.138 126V105.518H399.672V126H396.138ZM396.138 102.25V97.69H399.672V102.25H396.138ZM405.156 126V105.518H408.614V109.508L408.044 109.166C408.551 107.874 409.361 106.873 410.476 106.164C411.616 105.429 412.946 105.062 414.466 105.062C415.935 105.062 417.24 105.391 418.38 106.05C419.545 106.709 420.457 107.621 421.116 108.786C421.8 109.951 422.142 111.269 422.142 112.738V126H418.57V113.878C418.57 112.738 418.367 111.775 417.962 110.99C417.557 110.205 416.974 109.597 416.214 109.166C415.479 108.71 414.631 108.482 413.668 108.482C412.705 108.482 411.844 108.71 411.084 109.166C410.349 109.597 409.767 110.217 409.336 111.028C408.905 111.813 408.69 112.763 408.69 113.878V126H405.156ZM436.965 134.36C435.521 134.36 434.178 134.132 432.937 133.676C431.721 133.22 430.67 132.587 429.783 131.776C428.922 130.991 428.263 130.066 427.807 129.002L431.113 127.482C431.468 128.445 432.139 129.255 433.127 129.914C434.14 130.598 435.407 130.94 436.927 130.94C438.092 130.94 439.144 130.712 440.081 130.256C441.044 129.825 441.804 129.167 442.361 128.28C442.918 127.419 443.197 126.367 443.197 125.126V120.528L443.843 121.212C443.134 122.605 442.108 123.669 440.765 124.404C439.448 125.139 437.991 125.506 436.395 125.506C434.47 125.506 432.747 125.063 431.227 124.176C429.707 123.264 428.516 122.035 427.655 120.49C426.794 118.919 426.363 117.184 426.363 115.284C426.363 113.359 426.794 111.623 427.655 110.078C428.516 108.533 429.694 107.317 431.189 106.43C432.709 105.518 434.432 105.062 436.357 105.062C437.953 105.062 439.397 105.429 440.689 106.164C442.006 106.873 443.058 107.861 443.843 109.128L443.311 110.078V105.518H446.769V125.126C446.769 126.899 446.351 128.483 445.515 129.876C444.679 131.269 443.514 132.359 442.019 133.144C440.55 133.955 438.865 134.36 436.965 134.36ZM436.699 122.086C437.915 122.086 439.004 121.782 439.967 121.174C440.955 120.566 441.74 119.755 442.323 118.742C442.906 117.703 443.197 116.551 443.197 115.284C443.197 114.043 442.906 112.903 442.323 111.864C441.74 110.825 440.955 110.002 439.967 109.394C439.004 108.786 437.915 108.482 436.699 108.482C435.458 108.482 434.33 108.786 433.317 109.394C432.304 110.002 431.506 110.825 430.923 111.864C430.366 112.877 430.087 114.017 430.087 115.284C430.087 116.551 430.366 117.703 430.923 118.742C431.506 119.755 432.291 120.566 433.279 121.174C434.292 121.782 435.432 122.086 436.699 122.086ZM459.234 126V97.69H468.506C471.369 97.69 473.864 98.2727 475.992 99.438C478.12 100.603 479.767 102.25 480.932 104.378C482.097 106.481 482.68 108.963 482.68 111.826C482.68 114.663 482.097 117.146 480.932 119.274C479.767 121.402 478.12 123.061 475.992 124.252C473.864 125.417 471.369 126 468.506 126H459.234ZM462.958 122.58H468.544C470.647 122.58 472.458 122.137 473.978 121.25C475.523 120.363 476.714 119.122 477.55 117.526C478.386 115.905 478.804 114.005 478.804 111.826C478.804 109.622 478.373 107.722 477.512 106.126C476.676 104.53 475.485 103.301 473.94 102.44C472.42 101.553 470.621 101.11 468.544 101.11H462.958V122.58ZM496.71 126.456C494.734 126.456 492.948 126 491.352 125.088C489.756 124.151 488.489 122.871 487.552 121.25C486.615 119.629 486.146 117.792 486.146 115.74C486.146 113.688 486.602 111.864 487.514 110.268C488.451 108.672 489.718 107.405 491.314 106.468C492.91 105.531 494.709 105.062 496.71 105.062C498.686 105.062 500.472 105.531 502.068 106.468C503.664 107.38 504.918 108.634 505.83 110.23C506.767 111.826 507.236 113.663 507.236 115.74C507.236 117.817 506.755 119.667 505.792 121.288C504.829 122.884 503.55 124.151 501.954 125.088C500.383 126 498.635 126.456 496.71 126.456ZM496.71 123.036C497.977 123.036 499.117 122.719 500.13 122.086C501.169 121.453 501.979 120.579 502.562 119.464C503.17 118.349 503.474 117.108 503.474 115.74C503.474 114.347 503.17 113.118 502.562 112.054C501.979 110.965 501.169 110.103 500.13 109.47C499.117 108.811 497.977 108.482 496.71 108.482C495.418 108.482 494.253 108.811 493.214 109.47C492.201 110.103 491.39 110.965 490.782 112.054C490.174 113.118 489.87 114.347 489.87 115.74C489.87 117.108 490.174 118.349 490.782 119.464C491.39 120.579 492.201 121.453 493.214 122.086C494.253 122.719 495.418 123.036 496.71 123.036ZM511.845 126V105.518H515.303V109.508L514.733 109.166C515.24 107.874 516.051 106.873 517.165 106.164C518.305 105.429 519.635 105.062 521.155 105.062C522.625 105.062 523.929 105.391 525.069 106.05C526.235 106.709 527.147 107.621 527.805 108.786C528.489 109.951 528.831 111.269 528.831 112.738V126H525.259V113.878C525.259 112.738 525.057 111.775 524.651 110.99C524.246 110.205 523.663 109.597 522.903 109.166C522.169 108.71 521.32 108.482 520.357 108.482C519.395 108.482 518.533 108.71 517.773 109.166C517.039 109.597 516.456 110.217 516.025 111.028C515.595 111.813 515.379 112.763 515.379 113.878V126H511.845ZM543.312 126.456C541.336 126.456 539.576 125.987 538.03 125.05C536.485 124.113 535.269 122.833 534.382 121.212C533.496 119.565 533.052 117.729 533.052 115.702C533.052 113.65 533.483 111.826 534.344 110.23C535.231 108.634 536.422 107.38 537.916 106.468C539.436 105.531 541.134 105.062 543.008 105.062C544.528 105.062 545.871 105.341 547.036 105.898C548.227 106.43 549.228 107.165 550.038 108.102C550.874 109.014 551.508 110.065 551.938 111.256C552.394 112.421 552.622 113.637 552.622 114.904C552.622 115.183 552.597 115.499 552.546 115.854C552.521 116.183 552.483 116.5 552.432 116.804H535.636V113.764H550.38L548.708 115.132C548.936 113.815 548.81 112.637 548.328 111.598C547.847 110.559 547.138 109.736 546.2 109.128C545.263 108.52 544.199 108.216 543.008 108.216C541.818 108.216 540.728 108.52 539.74 109.128C538.752 109.736 537.98 110.61 537.422 111.75C536.89 112.865 536.675 114.195 536.776 115.74C536.675 117.235 536.903 118.552 537.46 119.692C538.043 120.807 538.854 121.681 539.892 122.314C540.956 122.922 542.109 123.226 543.35 123.226C544.718 123.226 545.871 122.909 546.808 122.276C547.746 121.643 548.506 120.832 549.088 119.844L552.052 121.364C551.647 122.301 551.014 123.163 550.152 123.948C549.316 124.708 548.316 125.316 547.15 125.772C546.01 126.228 544.731 126.456 543.312 126.456ZM564.217 126V97.69H576.111C577.808 97.69 579.265 97.994 580.481 98.602C581.722 99.21 582.672 100.071 583.331 101.186C584.015 102.275 584.357 103.58 584.357 105.1C584.357 106.493 583.989 107.76 583.255 108.9C582.545 110.015 581.494 110.889 580.101 111.522L580.062 110.116C581.279 110.572 582.279 111.18 583.065 111.94C583.875 112.675 584.483 113.536 584.889 114.524C585.294 115.487 585.497 116.513 585.497 117.602C585.497 120.211 584.661 122.263 582.989 123.758C581.317 125.253 579.037 126 576.149 126H564.217ZM567.941 122.58H576.301C577.947 122.58 579.265 122.137 580.252 121.25C581.241 120.363 581.735 119.16 581.735 117.64C581.735 116.12 581.241 114.917 580.252 114.03C579.265 113.118 577.947 112.662 576.301 112.662H567.941V122.58ZM567.941 109.318H576.035C577.403 109.318 578.505 108.925 579.341 108.14C580.177 107.329 580.594 106.303 580.594 105.062C580.594 103.77 580.177 102.782 579.341 102.098C578.505 101.414 577.403 101.072 576.035 101.072H567.941V109.318ZM599.533 126.456C597.557 126.456 595.796 125.987 594.251 125.05C592.706 124.113 591.49 122.833 590.603 121.212C589.716 119.565 589.273 117.729 589.273 115.702C589.273 113.65 589.704 111.826 590.565 110.23C591.452 108.634 592.642 107.38 594.137 106.468C595.657 105.531 597.354 105.062 599.229 105.062C600.749 105.062 602.092 105.341 603.257 105.898C604.448 106.43 605.448 107.165 606.259 108.102C607.095 109.014 607.728 110.065 608.159 111.256C608.615 112.421 608.843 113.637 608.843 114.904C608.843 115.183 608.818 115.499 608.767 115.854C608.742 116.183 608.704 116.5 608.653 116.804H591.857V113.764H606.601L604.929 115.132C605.157 113.815 605.03 112.637 604.549 111.598C604.068 110.559 603.358 109.736 602.421 109.128C601.484 108.52 600.42 108.216 599.229 108.216C598.038 108.216 596.949 108.52 595.961 109.128C594.973 109.736 594.2 110.61 593.643 111.75C593.111 112.865 592.896 114.195 592.997 115.74C592.896 117.235 593.124 118.552 593.681 119.692C594.264 120.807 595.074 121.681 596.113 122.314C597.177 122.922 598.33 123.226 599.571 123.226C600.939 123.226 602.092 122.909 603.029 122.276C603.966 121.643 604.726 120.832 605.309 119.844L608.273 121.364C607.868 122.301 607.234 123.163 606.373 123.948C605.537 124.708 604.536 125.316 603.371 125.772C602.231 126.228 600.952 126.456 599.533 126.456ZM621.773 126.228C619.772 126.228 618.226 125.658 617.137 124.518C616.073 123.378 615.541 121.769 615.541 119.692V108.9H611.817V105.518H612.577C613.489 105.518 614.211 105.239 614.743 104.682C615.275 104.125 615.541 103.39 615.541 102.478V100.806H619.075V105.518H623.673V108.9H619.075V119.578C619.075 120.262 619.176 120.857 619.379 121.364C619.607 121.871 619.974 122.276 620.481 122.58C620.988 122.859 621.659 122.998 622.495 122.998C622.672 122.998 622.888 122.985 623.141 122.96C623.42 122.935 623.673 122.909 623.901 122.884V126C623.572 126.076 623.204 126.127 622.799 126.152C622.394 126.203 622.052 126.228 621.773 126.228ZM636.839 126.228C634.838 126.228 633.293 125.658 632.203 124.518C631.139 123.378 630.607 121.769 630.607 119.692V108.9H626.883V105.518H627.643C628.555 105.518 629.277 105.239 629.809 104.682C630.341 104.125 630.607 103.39 630.607 102.478V100.806H634.141V105.518H638.739V108.9H634.141V119.578C634.141 120.262 634.243 120.857 634.445 121.364C634.673 121.871 635.041 122.276 635.547 122.58C636.054 122.859 636.725 122.998 637.561 122.998C637.739 122.998 637.954 122.985 638.207 122.96C638.486 122.935 638.739 122.909 638.967 122.884V126C638.638 126.076 638.271 126.127 637.865 126.152C637.46 126.203 637.118 126.228 636.839 126.228ZM652.451 126.456C650.475 126.456 648.714 125.987 647.169 125.05C645.624 124.113 644.408 122.833 643.521 121.212C642.634 119.565 642.191 117.729 642.191 115.702C642.191 113.65 642.622 111.826 643.483 110.23C644.37 108.634 645.56 107.38 647.055 106.468C648.575 105.531 650.272 105.062 652.147 105.062C653.667 105.062 655.01 105.341 656.175 105.898C657.366 106.43 658.366 107.165 659.177 108.102C660.013 109.014 660.646 110.065 661.077 111.256C661.533 112.421 661.761 113.637 661.761 114.904C661.761 115.183 661.736 115.499 661.685 115.854C661.66 116.183 661.622 116.5 661.571 116.804H644.775V113.764H659.519L657.847 115.132C658.075 113.815 657.948 112.637 657.467 111.598C656.986 110.559 656.276 109.736 655.339 109.128C654.402 108.52 653.338 108.216 652.147 108.216C650.956 108.216 649.867 108.52 648.879 109.128C647.891 109.736 647.118 110.61 646.561 111.75C646.029 112.865 645.814 114.195 645.915 115.74C645.814 117.235 646.042 118.552 646.599 119.692C647.182 120.807 647.992 121.681 649.031 122.314C650.095 122.922 651.248 123.226 652.489 123.226C653.857 123.226 655.01 122.909 655.947 122.276C656.884 121.643 657.644 120.832 658.227 119.844L661.191 121.364C660.786 122.301 660.152 123.163 659.291 123.948C658.455 124.708 657.454 125.316 656.289 125.772C655.149 126.228 653.87 126.456 652.451 126.456ZM666.369 126V105.518H669.827V109.28L669.447 108.748C669.928 107.583 670.663 106.721 671.651 106.164C672.639 105.581 673.842 105.29 675.261 105.29H676.515V108.634H674.729C673.285 108.634 672.119 109.09 671.233 110.002C670.346 110.889 669.903 112.155 669.903 113.802V126H666.369Z" fill="#92A2C2"/>
</svg>
